<svg xmlns="http://www.w3.org/2000/svg" viewBox="0 0 400 520" fill="none">
  <!-- Shadow -->
  <rect x="16" y="16" width="368" height="488" rx="12" fill="#000" opacity=".06"/>

  <!-- Page background -->
  <rect x="8" y="8" width="368" height="488" rx="12" fill="#fefefe" stroke="#e4dfd7" stroke-width="1.5"/>

  <!-- Top gradient bar -->
  <rect x="8" y="8" width="368" height="6" rx="3" fill="url(#topBar)"/>

  <!-- Header area -->
  <rect x="32" y="36" width="120" height="8" rx="4" fill="#6b66e9" opacity=".15"/>
  <text x="192" y="72" font-family="Georgia, serif" font-size="18" font-weight="700" fill="#1a1a1a" text-anchor="middle">Self-Booking System</text>
  <text x="192" y="94" font-family="Georgia, serif" font-size="15" font-weight="600" fill="#6b66e9" text-anchor="middle" font-style="italic">Checklist</text>

  <!-- Divider -->
  <line x1="48" y1="114" x2="336" y2="114" stroke="#e4dfd7" stroke-width="1"/>

  <!-- Stage 1 Label -->
  <rect x="32" y="130" width="90" height="22" rx="11" fill="#deff55"/>
  <text x="77" y="145" font-family="system-ui, sans-serif" font-size="9" font-weight="700" fill="#1a1a1a" text-anchor="middle" letter-spacing="1">STAGE 1: SEEN</text>

  <!-- Checklist items Stage 1 -->
  <!-- Item 1 - checked -->
  <rect x="32" y="164" width="18" height="18" rx="4" fill="#f4faf4" stroke="#d4ecd4" stroke-width="1.5"/>
  <path d="M37 173 L39.5 176 L46 169" stroke="#5a9e6b" stroke-width="2" stroke-linecap="round" stroke-linejoin="round" fill="none"/>
  <rect x="60" y="168" width="200" height="9" rx="4.5" fill="#cfc8bd" opacity=".4"/>

  <!-- Item 2 - checked -->
  <rect x="32" y="194" width="18" height="18" rx="4" fill="#f4faf4" stroke="#d4ecd4" stroke-width="1.5"/>
  <path d="M37 203 L39.5 206 L46 199" stroke="#5a9e6b" stroke-width="2" stroke-linecap="round" stroke-linejoin="round" fill="none"/>
  <rect x="60" y="198" width="170" height="9" rx="4.5" fill="#cfc8bd" opacity=".4"/>

  <!-- Item 3 - unchecked -->
  <rect x="32" y="224" width="18" height="18" rx="4" fill="#fef6f4" stroke="#f5ddd7" stroke-width="1.5"/>
  <rect x="60" y="228" width="240" height="9" rx="4.5" fill="#cfc8bd" opacity=".4"/>

  <!-- Item 4 - checked -->
  <rect x="32" y="254" width="18" height="18" rx="4" fill="#f4faf4" stroke="#d4ecd4" stroke-width="1.5"/>
  <path d="M37 263 L39.5 266 L46 259" stroke="#5a9e6b" stroke-width="2" stroke-linecap="round" stroke-linejoin="round" fill="none"/>
  <rect x="60" y="258" width="180" height="9" rx="4.5" fill="#cfc8bd" opacity=".4"/>

  <!-- Stage 2 Label -->
  <rect x="32" y="292" width="110" height="22" rx="11" fill="#deff55"/>
  <text x="87" y="307" font-family="system-ui, sans-serif" font-size="9" font-weight="700" fill="#1a1a1a" text-anchor="middle" letter-spacing="1">STAGE 2: BOOKED</text>

  <!-- Item 5 - unchecked -->
  <rect x="32" y="326" width="18" height="18" rx="4" fill="#fef6f4" stroke="#f5ddd7" stroke-width="1.5"/>
  <rect x="60" y="330" width="220" height="9" rx="4.5" fill="#cfc8bd" opacity=".4"/>

  <!-- Item 6 - unchecked -->
  <rect x="32" y="356" width="18" height="18" rx="4" fill="#fef6f4" stroke="#f5ddd7" stroke-width="1.5"/>
  <rect x="60" y="360" width="190" height="9" rx="4.5" fill="#cfc8bd" opacity=".4"/>

  <!-- Item 7 - checked -->
  <rect x="32" y="386" width="18" height="18" rx="4" fill="#f4faf4" stroke="#d4ecd4" stroke-width="1.5"/>
  <path d="M37 395 L39.5 398 L46 391" stroke="#5a9e6b" stroke-width="2" stroke-linecap="round" stroke-linejoin="round" fill="none"/>
  <rect x="60" y="390" width="250" height="9" rx="4.5" fill="#cfc8bd" opacity=".4"/>

  <!-- Stage 3 Label -->
  <rect x="32" y="424" width="100" height="22" rx="11" fill="#deff55"/>
  <text x="82" y="439" font-family="system-ui, sans-serif" font-size="9" font-weight="700" fill="#1a1a1a" text-anchor="middle" letter-spacing="1">STAGE 3: PAID</text>

  <!-- Item 8 - unchecked -->
  <rect x="32" y="458" width="18" height="18" rx="4" fill="#fef6f4" stroke="#f5ddd7" stroke-width="1.5"/>
  <rect x="60" y="462" width="210" height="9" rx="4.5" fill="#cfc8bd" opacity=".4"/>

  <defs>
    <linearGradient id="topBar" x1="8" y1="8" x2="376" y2="8">
      <stop offset="0%" stop-color="#6b66e9"/>
      <stop offset="100%" stop-color="#deff55"/>
    </linearGradient>
  </defs>
</svg>
